<?xml version="1.0" encoding="UTF-8" standalone="no"?>
<!-- Created with Inkscape (http://www.inkscape.org/) -->
<svg
   xmlns:dc="http://purl.org/dc/elements/1.1/"
   xmlns:cc="http://creativecommons.org/ns#"
   xmlns:rdf="http://www.w3.org/1999/02/22-rdf-syntax-ns#"
   xmlns:svg="http://www.w3.org/2000/svg"
   xmlns="http://www.w3.org/2000/svg"
   xmlns:xlink="http://www.w3.org/1999/xlink"
   xmlns:sodipodi="http://sodipodi.sourceforge.net/DTD/sodipodi-0.dtd"
   xmlns:inkscape="http://www.inkscape.org/namespaces/inkscape"
   id="svg1"
   sodipodi:version="0.32"
   inkscape:version="0.46"
   width="48"
   height="48"
   sodipodi:docbase="/home/bill/art/lila/gnome-games"
   sodipodi:docname="H-func.svg"
   inkscape:output_extension="org.inkscape.output.svg.inkscape"
   version="1.0">
  <sodipodi:namedview
     id="base"
     pagecolor="#ffffff"
     bordercolor="#666666"
     borderopacity="1.0"
     inkscape:pageopacity="0.0"
     inkscape:pageshadow="2"
     inkscape:zoom="12.668996"
     inkscape:cx="26.716613"
     inkscape:cy="20.018545"
     inkscape:window-width="1365"
     inkscape:window-height="964"
     inkscape:window-x="76"
     inkscape:window-y="9"
     showguides="true"
     inkscape:guide-bbox="true"
     showgrid="false"
     inkscape:current-layer="svg1" />
  <defs
     id="defs3">
    <inkscape:path-effect
       effect="curvestitching"
       id="path-effect2454"
       strokepath="M 50.3812,45.4301 L 57.936,45.4301 "
       count="5"
       prop_scale="0.4"
       scale_y_rel="true" />
    <linearGradient
       id="linearGradient3482"
       inkscape:collect="always">
      <stop
         id="stop3484"
         offset="0"
         style="stop-color:#dddd2b;stop-opacity:1;" />
      <stop
         id="stop3486"
         offset="1"
         style="stop-color:#dddd2b;stop-opacity:0;" />
    </linearGradient>
    <inkscape:perspective
       id="perspective80"
       inkscape:persp3d-origin="30 : 20 : 1"
       inkscape:vp_z="60 : 30 : 1"
       inkscape:vp_y="0 : 1000 : 0"
       inkscape:vp_x="0 : 30 : 1"
       sodipodi:type="inkscape:persp3d" />
    <linearGradient
       id="linearGradient1812">
      <stop
         id="stop1814"
         style="stop-color:#d9cce6;stop-opacity:1.0000000;"
         offset="0.0000000" />
      <stop
         id="stop1813"
         style="stop-color:#73667f;stop-opacity:1.0000000;"
         offset="1.0000000" />
    </linearGradient>
    <linearGradient
       id="linearGradient1807">
      <stop
         id="stop1809"
         style="stop-color:#ffffff;stop-opacity:1.0000000;"
         offset="0.0000000" />
      <stop
         id="stop1808"
         style="stop-color:#d9cce6;stop-opacity:1.0000000;"
         offset="1.0000000" />
    </linearGradient>
    <linearGradient
       id="linearGradient1801">
      <stop
         id="stop1803"
         style="stop-color:#80ff80;stop-opacity:1.0000000;"
         offset="0.0000000" />
      <stop
         id="stop1802"
         style="stop-color:#408040;stop-opacity:1.0000000;"
         offset="1.0000000" />
    </linearGradient>
    <linearGradient
       id="linearGradient1177">
      <stop
         id="stop1179"
         style="stop-color:#f50000;stop-opacity:1.0000000;"
         offset="0.0000000" />
      <stop
         id="stop1178"
         style="stop-color:#a80000;stop-opacity:1.0000000;"
         offset="1.0000000" />
    </linearGradient>
    <defs
       id="defs920">
      <linearGradient
         id="linearGradient8046">
        <stop
           id="stop8048"
           style="stop-color:#ffffff;stop-opacity:1.0000000;"
           offset="0.0000000" />
        <stop
           id="stop8047"
           style="stop-color:#ffffff;stop-opacity:0.0000000;"
           offset="1.0000000" />
      </linearGradient>
      <linearGradient
         xlink:href="#linearGradient1177"
         spreadMethod="pad"
         gradientUnits="objectBoundingBox"
         y2="0.5"
         x2="1"
         y1="0.5"
         x1="0"
         id="linearGradient4866" />
      <linearGradient
         xlink:href="#linearGradient1801"
         spreadMethod="pad"
         gradientUnits="objectBoundingBox"
         y2="0.5"
         x2="1"
         y1="0.5"
         x1="0"
         id="linearGradient4861" />
      <linearGradient
         xlink:href="#linearGradient1807"
         spreadMethod="pad"
         gradientUnits="objectBoundingBox"
         y2="0.5"
         x2="1"
         y1="0.5"
         x1="0"
         id="linearGradient2984" />
      <linearGradient
         xlink:href="#linearGradient1812"
         spreadMethod="pad"
         gradientUnits="objectBoundingBox"
         y2="0.5"
         x2="1"
         y1="0.5"
         x1="0"
         id="linearGradient2308" />
      <linearGradient
         id="linearGradient2304">
        <stop
           id="stop2305"
           offset="0"
           style="stop-color:#000;stop-opacity:1;" />
        <stop
           id="stop2306"
           offset="1"
           style="stop-color:#fff;stop-opacity:1;" />
      </linearGradient>
      <defs
         id="defs939">
        <linearGradient
           xlink:href="#linearGradient2308"
           spreadMethod="pad"
           gradientUnits="objectBoundingBox"
           y2="0.5"
           x2="1"
           y1="0.5"
           x1="0"
           id="linearGradient642" />
        <linearGradient
           xlink:href="#linearGradient2984"
           spreadMethod="pad"
           gradientUnits="objectBoundingBox"
           y2="0.5"
           x2="1"
           y1="0.5"
           x1="0"
           id="linearGradient866" />
        <linearGradient
           xlink:href="#linearGradient8046"
           spreadMethod="pad"
           gradientUnits="objectBoundingBox"
           y2="0.5"
           x2="1"
           y1="0.5"
           x1="0"
           id="linearGradient584" />
        <linearGradient
           y2="0.984375"
           x2="0.99122804"
           y1="0.015625"
           x1="0"
           id="linearGradient586"
           xlink:href="#linearGradient866" />
        <linearGradient
           y2="1"
           x2="1"
           y1="0"
           x1="0"
           id="linearGradient587"
           xlink:href="#linearGradient584" />
        <linearGradient
           y2="1"
           x2="0.99253732"
           y1="0"
           x1="0"
           id="linearGradient638"
           xlink:href="#linearGradient584" />
        <radialGradient
           id="radialGradient639"
           xlink:href="#linearGradient866" />
        <linearGradient
           y2="0.9921875"
           x2="1"
           y1="0"
           x1="0"
           id="linearGradient640"
           xlink:href="#linearGradient584" />
        <linearGradient
           y2="0.984375"
           x2="0.96666664"
           y1="0"
           x1="0"
           id="linearGradient641"
           xlink:href="#linearGradient642" />
        <linearGradient
           y2="0.9765625"
           x2="0.97761196"
           y1="0.0078125"
           x1="0.01492537"
           id="linearGradient645"
           xlink:href="#linearGradient584" />
      </defs>
      <sodipodi:namedview
         snaptoguides="true"
         showguides="true"
         inkscape:window-y="207"
         inkscape:window-x="96"
         inkscape:window-height="586"
         inkscape:window-width="704"
         inkscape:cy="22.124632"
         inkscape:cx="25.952554"
         inkscape:zoom="7.9794719"
         inkscape:pageshadow="2"
         inkscape:pageopacity="0.0"
         borderopacity="1.0"
         bordercolor="#666666"
         pagecolor="#ffffff"
         id="namedview937" />
      <linearGradient
         y2="0.9296875"
         x2="0.875"
         y1="-0.0078125"
         x1="0.0078125"
         id="linearGradient8045"
         xlink:href="#linearGradient8046"
         inkscape:collect="always" />
    </defs>
    <sodipodi:namedview
       inkscape:guide-bbox="true"
       showguides="true"
       inkscape:window-y="62"
       inkscape:window-x="437"
       inkscape:window-height="750"
       inkscape:window-width="760"
       inkscape:cy="22.532262"
       inkscape:cx="24.000000"
       inkscape:zoom="12.166667"
       inkscape:pageshadow="2"
       inkscape:pageopacity="0.0"
       borderopacity="1.0"
       bordercolor="#666666"
       pagecolor="#ffffff"
       id="namedview962" />
    <metadata
       id="metadata963">
      <rdf:RDF>
        <cc:Work
           rdf:about="">
          <dc:format>image/svg+xml</dc:format>
          <dc:type
             rdf:resource="http://purl.org/dc/dcmitype/StillImage" />
        </cc:Work>
      </rdf:RDF>
    </metadata>
    <radialGradient
       gradientTransform="matrix(0.9163515,-0.4003748,0.4173492,0.9552013,-4.9601508,7.516525)"
       gradientUnits="userSpaceOnUse"
       fy="15.304454"
       fx="17.061275"
       r="8.6500416"
       cy="15.304454"
       cx="17.061275"
       id="radialGradient1811"
       xlink:href="#linearGradient1807"
       inkscape:collect="always" />
    <linearGradient
       gradientUnits="userSpaceOnUse"
       y2="10.078984"
       x2="24.487848"
       y1="10.078984"
       x1="10.418619"
       id="linearGradient3488"
       xlink:href="#linearGradient3482"
       inkscape:collect="always" />
  </defs>
  <metadata
     id="metadata4">
    <rdf:RDF>
      <cc:Work
         rdf:about="">
        <dc:format>image/svg+xml</dc:format>
        <dc:type
           rdf:resource="http://purl.org/dc/dcmitype/StillImage" />
      </cc:Work>
    </rdf:RDF>
  </metadata>
  <path
     sodipodi:type="arc"
     style="fill:#898167;fill-opacity:1;fill-rule:evenodd;stroke:#384632;stroke-opacity:1"
     id="path2450"
     sodipodi:cx="-28.744186"
     sodipodi:cy="28.297674"
     sodipodi:rx="13.786047"
     sodipodi:ry="3.7953489"
     d="M -14.958139,28.297674 A 13.786047,3.7953489 0 1 1 -42.530233,28.297674 A 13.786047,3.7953489 0 1 1 -14.958139,28.297674 z"
     transform="matrix(0.3863513,-6.5426759e-2,0.1738664,0.1453857,47.619899,28.459635)" />
  <path
     inkscape:randomized="0"
     transform="matrix(0.2200345,0,0,0.2257775,14.735004,26.411221)"
     d="M 68.92562,21.322314 C 67.54874,21.498086 68.012101,17.707539 66.695312,17.268499 C 65.378522,16.829458 63.474383,20.139624 62.478489,19.172729 C 61.482594,18.205833 64.735064,16.204736 64.257315,14.901491 C 63.779565,13.598246 60.004362,14.173385 60.139381,12.791914 C 60.274401,11.410444 63.866803,12.705663 64.587849,11.519584 C 65.308895,10.333504 62.505433,7.7405246 63.669693,6.9847542 C 64.833954,6.2289838 66.061137,9.8451931 67.438016,9.6694212 C 68.814895,9.4936493 69.094238,5.6851175 70.411028,6.1241581 C 71.727818,6.5631987 69.665687,9.7773182 70.661581,10.744214 C 71.657475,11.711109 74.809273,9.5549275 75.287022,10.858173 C 75.764771,12.161418 71.966154,12.55315 71.831135,13.934621 C 71.696115,15.316092 75.346999,16.435909 74.625953,17.621988 C 73.904907,18.808068 71.230239,16.08243 70.065979,16.838201 C 68.901718,17.593971 70.302499,21.146542 68.92562,21.322314 z"
     inkscape:rounded="0.3"
     inkscape:flatsided="false"
     sodipodi:arg2="1.8926225"
     sodipodi:arg1="1.4438235"
     sodipodi:r2="3.9158206"
     sodipodi:r1="7.8316417"
     sodipodi:cy="13.553719"
     sodipodi:cx="67.933884"
     sodipodi:sides="7"
     id="path2444"
     style="fill:#f5f56d;fill-opacity:1;fill-rule:evenodd;stroke:#261933;stroke-width:1.10287762;stroke-linecap:butt;stroke-linejoin:miter;stroke-miterlimit:4;stroke-opacity:1"
     sodipodi:type="star" />
  <text
     transform="scale(1.1263244,0.8878437)"
     sodipodi:linespacing="125%"
     id="text2480"
     y="28.485573"
     x="0.92244321"
     style="font-size:19.73535156px;font-style:normal;font-variant:normal;font-weight:900;font-stretch:normal;text-align:start;line-height:125%;writing-mode:lr-tb;text-anchor:start;fill:#000000;fill-opacity:1;stroke:none;stroke-width:1px;stroke-linecap:butt;stroke-linejoin:miter;stroke-opacity:1;font-family:Bell Gothic Std Black;-inkscape-font-specification:Bell Gothic Std Black Heavy"
     xml:space="preserve"><tspan
       y="28.485573"
       x="0.92244321"
       id="tspan2482"
       sodipodi:role="line">H</tspan></text>
  <path
     id="path3468"
     d="M 3.162718,18.89004 L 3.162718,12.491716 L 4.9233366,12.491716 L 6.6839553,12.491716 L 6.6839553,14.923079 L 6.6839553,17.354442 L 9.0167754,17.354442 L 11.349595,17.354442 L 11.349595,14.923079 L 11.349595,12.491716 L 13.154229,12.491716 L 14.958863,12.491716 L 14.958863,18.89004 L 14.958863,25.288364 L 13.198244,25.288364 L 11.437626,25.288364 L 11.437626,22.515756 L 11.437626,19.743149 L 9.1048064,19.743149 L 6.7719862,19.743149 L 6.7719862,22.515756 L 6.7719862,25.288364 L 4.9673521,25.288364 L 3.162718,25.288364 L 3.162718,18.89004 z"
     style="stroke:#dddd2b;stroke-width:0.08666029;stroke-opacity:0.51243783" />
  <path
     id="path3492"
     d="M 3.250749,18.89004 L 3.250749,12.577027 L 4.9233366,12.577027 L 6.5959243,12.577027 L 6.5959243,15.00839 L 6.5959243,17.439753 L 9.0167754,17.439753 L 11.437626,17.439753 L 11.437626,15.00839 L 11.437626,12.577027 L 13.154229,12.577027 L 14.870832,12.577027 L 14.870832,18.89004 L 14.870832,25.203053 L 13.198244,25.203053 L 11.525657,25.203053 L 11.525657,22.430446 L 11.525657,19.657839 L 9.1048064,19.657839 L 6.6839553,19.657839 L 6.6839553,22.430446 L 6.6839553,25.203053 L 4.9673521,25.203053 L 3.250749,25.203053 L 3.250749,18.89004 z"
     style="stroke:#dddd2b;stroke-width:0.08666029;stroke-opacity:0.51243783" />
  <path
     style="fill:#898167;fill-opacity:1;fill-rule:evenodd;stroke:#384632;stroke-width:0.08666029;stroke-opacity:1"
     d="M 3.3387799,18.89004 L 3.3387799,12.662338 L 4.9233366,12.662338 L 6.5078933,12.662338 L 6.5078933,15.093701 L 6.5078933,17.525064 L 9.0167754,17.525064 L 11.525657,17.525064 L 11.525657,15.093701 L 11.525657,12.662338 L 13.154229,12.662338 L 14.782801,12.662338 L 14.782801,18.89004 L 14.782801,25.117742 L 13.198244,25.117742 L 11.613688,25.117742 L 11.613688,22.345135 L 11.613688,19.572528 L 9.1048064,19.572528 L 6.5959243,19.572528 L 6.5959243,22.345135 L 6.5959243,25.117742 L 4.967352,25.117742 L 3.3387799,25.117742 L 3.3387799,18.89004 z"
     id="path3217" />
  <path
     inkscape:randomized="0"
     transform="matrix(0.6742453,0,0,0.6534128,-20.444341,5.0810788)"
     d="M 68.92562,21.322314 C 67.54874,21.498086 68.012101,17.707539 66.695312,17.268499 C 65.378522,16.829458 63.474383,20.139624 62.478489,19.172729 C 61.482594,18.205833 64.735064,16.204736 64.257315,14.901491 C 63.779565,13.598246 60.004362,14.173385 60.139381,12.791914 C 60.274401,11.410444 63.866803,12.705663 64.587849,11.519584 C 65.308895,10.333504 62.505433,7.7405246 63.669693,6.9847542 C 64.833954,6.2289838 66.061137,9.8451931 67.438016,9.6694212 C 68.814895,9.4936493 69.094238,5.6851175 70.411028,6.1241581 C 71.727818,6.5631987 69.665687,9.7773182 70.661581,10.744214 C 71.657475,11.711109 74.809273,9.5549275 75.287022,10.858173 C 75.764771,12.161418 71.966154,12.55315 71.831135,13.934621 C 71.696115,15.316092 75.346999,16.435909 74.625953,17.621988 C 73.904907,18.808068 71.230239,16.08243 70.065979,16.838201 C 68.901718,17.593971 70.302499,21.146542 68.92562,21.322314 z"
     inkscape:rounded="0.3"
     inkscape:flatsided="false"
     sodipodi:arg2="1.8926225"
     sodipodi:arg1="1.4438235"
     sodipodi:r2="3.9158206"
     sodipodi:r1="7.8316417"
     sodipodi:cy="13.553719"
     sodipodi:cx="67.933884"
     sodipodi:sides="7"
     id="path1176"
     style="fill:#f5f56d;fill-opacity:1;fill-rule:evenodd;stroke:#384632;stroke-width:1.10287762;stroke-linecap:butt;stroke-linejoin:miter;stroke-miterlimit:4;stroke-opacity:1"
     sodipodi:type="star" />
  <text
     transform="scale(1.0361398,0.9651208)"
     sodipodi:linespacing="125%"
     id="text2484"
     y="41.263515"
     x="0.56827402"
     style="font-size:19.73196411px;font-style:normal;font-variant:normal;font-weight:900;font-stretch:normal;text-align:start;line-height:125%;writing-mode:lr-tb;text-anchor:start;fill:#000000;fill-opacity:1;stroke:none;stroke-width:1px;stroke-linecap:butt;stroke-linejoin:miter;stroke-opacity:1;font-family:Bell Gothic Std Black;-inkscape-font-specification:Bell Gothic Std Black Heavy"
     xml:space="preserve"><tspan
       y="41.263515"
       x="0.56827402"
       id="tspan2486"
       sodipodi:role="line">func</tspan></text>
  <path
     style="stroke:#dddd2b;stroke-width:1.13636708;stroke-opacity:0.51243783"
     d="M 13.182543,1.2956409 C 12.234106,1.1954333 11.243682,1.3064178 10.351659,1.6915686 C 9.4825224,1.9695261 8.6717868,2.4484008 8.023199,3.1482628 C 7.270513,3.9236577 6.6137921,4.8178005 6.1126483,5.811311 C 5.6541743,6.7840403 5.4348113,7.874742 5.3289419,8.9575546 C 5.2893939,10.086862 5.4685591,11.208513 5.7968245,12.277045 C 6.0926326,13.344775 6.7050012,14.338448 7.6284128,14.854219 C 7.7661128,14.849527 8.191206,15.280555 8.0320819,14.825844 C 7.1382027,9.5131357 9.3724245,5.4452479 13.116725,1.6549831 C 13.150188,1.5293285 13.565916,1.2676534 13.182543,1.2956409 z"
     id="path2514"
     sodipodi:nodetypes="cccccccccc" />
  <path
     id="path3470"
     d="M 2.9483601,35.816952 L 2.9483601,31.807336 L 2.1560818,31.807336 L 1.3638034,31.807336 L 1.3638034,30.783604 L 1.3638034,29.759873 L 2.1560818,29.759873 L 2.9483601,29.759873 L 2.9483601,28.708684 C 2.9483601,27.100199 3.2044606,26.613951 4.3088227,26.125626 C 4.8854614,25.870649 6.1767721,25.711612 7.0365075,25.789687 L 7.7020308,25.850125 L 7.7020308,26.76977 L 7.7020308,27.68942 L 6.9006074,27.776131 C 5.8196553,27.893085 5.7536691,27.960099 5.7352759,28.959605 L 5.7213344,29.717217 L 6.7116824,29.741341 L 7.7020308,29.765459 L 7.7020308,30.740949 L 7.7020308,31.716438 L 6.7116824,31.740556 L 5.7213344,31.764681 L 5.698464,35.795624 L 5.6755944,39.826569 L 4.3119768,39.826569 L 2.9483601,39.826569 L 2.9483601,35.816952 z"
     style="stroke:#dddd2b;stroke-width:0.08666029;stroke-opacity:0.51243783" />
  <path
     id="path3494"
     d="M 3.036391,35.731641 L 3.036391,31.722025 L 2.2441127,31.722025 L 1.4518343,31.722025 L 1.4518343,30.783604 L 1.4518343,29.845184 L 2.2343227,29.845184 L 3.0168121,29.845184 L 3.0529453,28.629502 C 3.0840985,27.581364 3.1160186,27.363864 3.2845511,27.051344 C 3.4990676,26.653557 3.9233044,26.34152 4.5314256,26.134243 C 5.0910514,25.943493 6.5103002,25.798773 7.1078215,25.871525 L 7.6139998,25.933156 L 7.6139998,26.771317 L 7.6139998,27.609473 L 6.8639442,27.712653 C 5.7933041,27.859937 5.7286762,27.926992 5.6912666,28.929355 L 5.6611969,29.735015 L 5.9993757,29.789156 C 6.1853719,29.81894 6.6247518,29.843728 6.9757752,29.844244 L 7.6139998,29.845184 L 7.6139998,30.729764 L 7.6139998,31.614349 L 6.6894378,31.654199 C 6.1809289,31.676115 5.740828,31.717353 5.7114354,31.745837 C 5.6820435,31.774323 5.6365747,33.584944 5.6103952,35.769443 L 5.5627969,39.741258 L 4.2995926,39.741258 L 3.036391,39.741258 L 3.036391,35.731641 z"
     style="stroke:#dddd2b;stroke-width:0.08666029;stroke-opacity:0.51243783" />
  <path
     id="path3496"
     d="M 11.536467,39.874676 C 10.816421,39.616181 10.241238,38.98753 10.086972,38.290439 C 10.025127,38.010967 9.9908355,36.412146 9.9908355,33.807945 L 9.9908355,29.759873 L 11.39933,29.759873 L 12.807825,29.759873 L 12.807962,33.364262 C 12.808085,36.624905 12.822777,36.997126 12.962015,37.267239 C 13.164271,37.659602 13.630034,37.822986 14.159788,37.687404 C 14.631202,37.566752 15.270978,37.170852 15.518194,36.846806 C 15.711419,36.59353 15.712846,36.566602 15.712846,33.175766 L 15.712846,29.759873 L 17.077325,29.759873 L 18.441805,29.759873 L 18.441805,34.79322 L 18.441805,39.826569 L 17.165356,39.826569 L 15.888907,39.826569 L 15.888907,38.930803 C 15.888907,38.438133 15.855965,38.035038 15.815702,38.035038 C 15.77544,38.035038 15.618071,38.221127 15.465994,38.448569 C 15.100627,38.995004 14.476751,39.543322 13.967691,39.765411 C 13.433167,39.998608 12.054305,40.060578 11.536466,39.874676 L 11.536467,39.874676 z"
     style="stroke:#dddd2b;stroke-width:0.08666029;stroke-opacity:0.51243783" />
  <path
     id="path3498"
     d="M 21.346825,34.79322 L 21.346825,29.759873 L 22.664403,29.759873 L 23.981988,29.759873 L 24.006875,30.719621 L 24.031769,31.67937 L 24.286088,31.299708 C 24.646249,30.762048 25.337178,30.134546 25.867468,29.8635 C 26.278181,29.653572 26.407049,29.632109 27.244897,29.634079 C 28.027747,29.635923 28.225932,29.665292 28.539741,29.825977 C 29.254321,30.191881 29.64471,30.759129 29.793495,31.647738 C 29.846349,31.963414 29.884774,33.791526 29.885161,36.008902 L 29.885826,39.826569 L 28.480893,39.826569 L 27.07596,39.826569 L 27.05039,36.179524 C 27.021331,32.034752 27.026193,32.065294 26.368079,31.893558 C 25.836434,31.754824 25.2972,31.923218 24.680547,32.420545 L 24.163815,32.837291 L 24.163815,36.331927 L 24.163815,39.826569 L 22.75532,39.826569 L 21.346825,39.826569 L 21.346825,34.79322 z"
     style="stroke:#dddd2b;stroke-width:0.08666029;stroke-opacity:0.51243783" />
  <path
     id="path3500"
     d="M 35.555202,39.997445 C 33.815449,39.750232 32.797619,38.766253 32.47639,37.021026 C 32.338506,36.27191 32.314675,33.694627 32.437184,32.781311 C 32.652963,31.172642 33.446858,30.132682 34.779063,29.71357 C 35.38668,29.522411 37.173479,29.487494 37.764593,29.655223 C 38.344059,29.819648 39.058316,30.287877 39.400709,30.727777 C 39.748502,31.174615 39.878561,31.512933 39.972513,32.215197 L 40.032787,32.665716 L 38.902173,32.641753 L 37.771557,32.617791 L 37.710885,32.3297 C 37.677516,32.171251 37.546201,31.940912 37.419076,31.817836 C 37.214183,31.619469 37.1189,31.594098 36.579925,31.594406 C 35.821953,31.594837 35.542486,31.766917 35.322242,32.368799 C 35.188912,32.733162 35.171674,33.074852 35.191325,34.963842 C 35.21715,37.44663 35.268387,37.686008 35.821917,37.910141 C 36.20997,38.067269 36.846033,38.070639 37.224066,37.917567 C 37.521798,37.797009 37.808609,37.359906 37.808609,37.026719 C 37.808609,36.595699 37.840045,36.584751 39.077708,36.584751 L 40.239942,36.584751 L 40.168224,37.245912 C 39.991663,38.873744 39.038247,39.781326 37.282733,39.992689 C 36.462273,40.09147 36.221568,40.092135 35.555203,39.997447 L 35.555202,39.997445 z"
     style="stroke:#dddd2b;stroke-width:0.08666029;stroke-opacity:0.51243783" />
  <path
     id="path3502"
     d="M 21.434856,34.79322 L 21.434856,29.845184 L 22.667289,29.845184 L 23.899722,29.845184 L 23.904795,30.506343 C 23.907586,30.869982 23.937296,31.31636 23.970819,31.498296 L 24.031769,31.829091 L 24.312748,31.408727 C 24.671614,30.871841 25.43225,30.173829 25.922633,29.931384 C 26.24596,29.771531 26.447824,29.74281 27.247985,29.74281 C 27.820816,29.742811 28.273975,29.783912 28.400646,29.847357 C 29.240449,30.267993 29.600453,30.860652 29.715455,32.011895 C 29.758119,32.438977 29.794097,34.352802 29.795409,36.264835 L 29.797795,39.741258 L 28.491553,39.741258 L 27.185311,39.741258 L 27.130458,36.217587 C 27.071494,32.429686 27.034949,32.116513 26.628681,31.917602 C 26.064608,31.641427 25.324045,31.837964 24.472503,32.489824 L 24.082446,32.788412 L 24.079115,36.264835 L 24.075784,39.741258 L 22.75532,39.741258 L 21.434856,39.741258 L 21.434856,34.79322 z"
     style="stroke:#f6f630;stroke-width:0.08666029;stroke-opacity:0.51243783" />
  <path
     inkscape:randomized="0"
     transform="matrix(0.2200345,0,0,0.2257775,27.36172,19.636316)"
     d="M 68.92562,21.322314 C 67.54874,21.498086 68.012101,17.707539 66.695312,17.268499 C 65.378522,16.829458 63.474383,20.139624 62.478489,19.172729 C 61.482594,18.205833 64.735064,16.204736 64.257315,14.901491 C 63.779565,13.598246 60.004362,14.173385 60.139381,12.791914 C 60.274401,11.410444 63.866803,12.705663 64.587849,11.519584 C 65.308895,10.333504 62.505433,7.7405246 63.669693,6.9847542 C 64.833954,6.2289838 66.061137,9.8451931 67.438016,9.6694212 C 68.814895,9.4936493 69.094238,5.6851175 70.411028,6.1241581 C 71.727818,6.5631987 69.665687,9.7773182 70.661581,10.744214 C 71.657475,11.711109 74.809273,9.5549275 75.287022,10.858173 C 75.764771,12.161418 71.966154,12.55315 71.831135,13.934621 C 71.696115,15.316092 75.346999,16.435909 74.625953,17.621988 C 73.904907,18.808068 71.230239,16.08243 70.065979,16.838201 C 68.901718,17.593971 70.302499,21.146542 68.92562,21.322314 z"
     inkscape:rounded="0.3"
     inkscape:flatsided="false"
     sodipodi:arg2="1.8926225"
     sodipodi:arg1="1.4438235"
     sodipodi:r2="3.9158206"
     sodipodi:r1="7.8316417"
     sodipodi:cy="13.553719"
     sodipodi:cx="67.933884"
     sodipodi:sides="7"
     id="path3673"
     style="fill:#f5f56d;fill-opacity:1;fill-rule:evenodd;stroke:#261933;stroke-width:1.10287762;stroke-linecap:butt;stroke-linejoin:miter;stroke-miterlimit:4;stroke-opacity:1"
     sodipodi:type="star" />
  <path
     inkscape:randomized="0"
     transform="matrix(0.2200345,0,0,0.2257775,22.343959,13.92048)"
     d="M 68.92562,21.322314 C 67.54874,21.498086 68.012101,17.707539 66.695312,17.268499 C 65.378522,16.829458 63.474383,20.139624 62.478489,19.172729 C 61.482594,18.205833 64.735064,16.204736 64.257315,14.901491 C 63.779565,13.598246 60.004362,14.173385 60.139381,12.791914 C 60.274401,11.410444 63.866803,12.705663 64.587849,11.519584 C 65.308895,10.333504 62.505433,7.7405246 63.669693,6.9847542 C 64.833954,6.2289838 66.061137,9.8451931 67.438016,9.6694212 C 68.814895,9.4936493 69.094238,5.6851175 70.411028,6.1241581 C 71.727818,6.5631987 69.665687,9.7773182 70.661581,10.744214 C 71.657475,11.711109 74.809273,9.5549275 75.287022,10.858173 C 75.764771,12.161418 71.966154,12.55315 71.831135,13.934621 C 71.696115,15.316092 75.346999,16.435909 74.625953,17.621988 C 73.904907,18.808068 71.230239,16.08243 70.065979,16.838201 C 68.901718,17.593971 70.302499,21.146542 68.92562,21.322314 z"
     inkscape:rounded="0.3"
     inkscape:flatsided="false"
     sodipodi:arg2="1.8926225"
     sodipodi:arg1="1.4438235"
     sodipodi:r2="3.9158206"
     sodipodi:r1="7.8316417"
     sodipodi:cy="13.553719"
     sodipodi:cx="67.933884"
     sodipodi:sides="7"
     id="path3675"
     style="fill:#f5f56d;fill-opacity:1;fill-rule:evenodd;stroke:#261933;stroke-width:1.10287762;stroke-linecap:butt;stroke-linejoin:miter;stroke-miterlimit:4;stroke-opacity:1"
     sodipodi:type="star" />
  <path
     inkscape:randomized="0"
     transform="matrix(0.2200345,0,0,0.2257775,8.6111339,21.086603)"
     d="M 68.92562,21.322314 C 67.54874,21.498086 68.012101,17.707539 66.695312,17.268499 C 65.378522,16.829458 63.474383,20.139624 62.478489,19.172729 C 61.482594,18.205833 64.735064,16.204736 64.257315,14.901491 C 63.779565,13.598246 60.004362,14.173385 60.139381,12.791914 C 60.274401,11.410444 63.866803,12.705663 64.587849,11.519584 C 65.308895,10.333504 62.505433,7.7405246 63.669693,6.9847542 C 64.833954,6.2289838 66.061137,9.8451931 67.438016,9.6694212 C 68.814895,9.4936493 69.094238,5.6851175 70.411028,6.1241581 C 71.727818,6.5631987 69.665687,9.7773182 70.661581,10.744214 C 71.657475,11.711109 74.809273,9.5549275 75.287022,10.858173 C 75.764771,12.161418 71.966154,12.55315 71.831135,13.934621 C 71.696115,15.316092 75.346999,16.435909 74.625953,17.621988 C 73.904907,18.808068 71.230239,16.08243 70.065979,16.838201 C 68.901718,17.593971 70.302499,21.146542 68.92562,21.322314 z"
     inkscape:rounded="0.3"
     inkscape:flatsided="false"
     sodipodi:arg2="1.8926225"
     sodipodi:arg1="1.4438235"
     sodipodi:r2="3.9158206"
     sodipodi:r1="7.8316417"
     sodipodi:cy="13.553719"
     sodipodi:cx="67.933884"
     sodipodi:sides="7"
     id="path3677"
     style="fill:#f5f56d;fill-opacity:1;fill-rule:evenodd;stroke:#261933;stroke-width:1.10287762;stroke-linecap:butt;stroke-linejoin:miter;stroke-miterlimit:4;stroke-opacity:1"
     sodipodi:type="star" />
  <path
     inkscape:randomized="0"
     transform="matrix(0.2200345,0,0,0.2257775,23.488362,3.853784)"
     d="M 68.92562,21.322314 C 67.54874,21.498086 68.012101,17.707539 66.695312,17.268499 C 65.378522,16.829458 63.474383,20.139624 62.478489,19.172729 C 61.482594,18.205833 64.735064,16.204736 64.257315,14.901491 C 63.779565,13.598246 60.004362,14.173385 60.139381,12.791914 C 60.274401,11.410444 63.866803,12.705663 64.587849,11.519584 C 65.308895,10.333504 62.505433,7.7405246 63.669693,6.9847542 C 64.833954,6.2289838 66.061137,9.8451931 67.438016,9.6694212 C 68.814895,9.4936493 69.094238,5.6851175 70.411028,6.1241581 C 71.727818,6.5631987 69.665687,9.7773182 70.661581,10.744214 C 71.657475,11.711109 74.809273,9.5549275 75.287022,10.858173 C 75.764771,12.161418 71.966154,12.55315 71.831135,13.934621 C 71.696115,15.316092 75.346999,16.435909 74.625953,17.621988 C 73.904907,18.808068 71.230239,16.08243 70.065979,16.838201 C 68.901718,17.593971 70.302499,21.146542 68.92562,21.322314 z"
     inkscape:rounded="0.3"
     inkscape:flatsided="false"
     sodipodi:arg2="1.8926225"
     sodipodi:arg1="1.4438235"
     sodipodi:r2="3.9158206"
     sodipodi:r1="7.8316417"
     sodipodi:cy="13.553719"
     sodipodi:cx="67.933884"
     sodipodi:sides="7"
     id="path3679"
     style="fill:#f5f56d;fill-opacity:1;fill-rule:evenodd;stroke:#261933;stroke-width:1.10287762;stroke-linecap:butt;stroke-linejoin:miter;stroke-miterlimit:4;stroke-opacity:1"
     sodipodi:type="star" />
  <path
     style="fill:#898167;fill-opacity:1;fill-rule:evenodd;stroke:#384632;stroke-width:0.08666029;stroke-opacity:1"
     d="M 3.1244219,35.646331 L 3.1244219,31.636714 L 2.3321436,31.636714 L 1.5398652,31.636714 L 1.5398652,30.783604 L 1.5398652,29.930495 L 2.3193562,29.930495 L 3.0988464,29.930495 L 3.1455274,28.654183 C 3.1985053,27.205668 3.2672768,27.012541 3.8954426,26.548227 C 4.4486052,26.139348 6.3478154,25.799727 7.2073079,25.955987 L 7.5259688,26.013922 L 7.5259688,26.771078 L 7.5259688,27.528227 L 7.2838835,27.573096 C 7.1507369,27.597775 6.8635357,27.643754 6.6456592,27.675275 C 6.1569202,27.745983 5.8061918,27.913397 5.7255414,28.114481 C 5.6155406,28.388743 5.5589033,29.731605 5.6549107,29.789107 C 5.7044316,29.818768 6.1456743,29.868481 6.6354564,29.899586 L 7.5259688,29.956144 L 7.5259688,30.743583 L 7.5259688,31.531023 L 6.6016006,31.59208 C 6.0931999,31.625662 5.6611538,31.678355 5.6415001,31.709173 C 5.6218428,31.73999 5.5765587,33.540623 5.5408622,35.710578 L 5.4759614,39.655947 L 4.3001912,39.655947 L 3.1244219,39.655947 L 3.1244219,35.646331 z"
     id="path3219" />
  <path
     style="fill:#898167;fill-opacity:1;fill-rule:evenodd;stroke:#384632;stroke-width:0.08666029;stroke-opacity:1"
     d="M 11.686919,39.828907 C 11.209466,39.719011 10.631342,39.232893 10.365194,38.717526 L 10.122881,38.248316 L 10.093701,34.046749 L 10.064515,29.845184 L 11.386182,29.845184 L 12.707844,29.845184 L 12.735827,33.449573 C 12.762014,36.822708 12.774626,37.071284 12.932412,37.323953 C 13.245376,37.825117 13.868213,37.917876 14.612459,37.574164 C 15.309459,37.252269 15.628858,36.941305 15.716914,36.498875 C 15.758878,36.288043 15.794935,34.704711 15.797043,32.980363 L 15.800876,29.845184 L 17.077325,29.845184 L 18.353774,29.845184 L 18.353774,34.793221 L 18.353774,39.741258 L 17.165356,39.741258 L 15.976938,39.741258 L 15.975735,39.037442 C 15.974514,38.321515 15.917039,37.949727 15.807588,37.949727 C 15.774156,37.949727 15.559419,38.197046 15.330394,38.499323 C 14.777739,39.228743 14.162799,39.659868 13.47601,39.799399 C 12.888842,39.918692 12.131288,39.931185 11.686916,39.828906 L 11.686919,39.828907 z"
     id="path3221" />
  <path
     style="fill:#898167;fill-opacity:1;fill-rule:evenodd;stroke:#384632;stroke-width:0.08666029;stroke-opacity:1"
     d="M 21.522887,34.793221 L 21.522887,29.930495 L 22.655275,29.930495 L 23.787663,29.930495 L 23.850242,30.83582 C 23.884659,31.33375 23.934671,31.796331 23.961378,31.86378 C 23.994202,31.946672 24.107232,31.846402 24.310177,31.554357 C 24.722655,30.960791 25.502608,30.234347 25.955586,30.021839 C 26.260376,29.878852 26.50192,29.845184 27.222945,29.845184 C 28.236222,29.845184 28.414749,29.892869 28.878373,30.287352 C 29.60469,30.905357 29.707897,31.66926 29.709007,36.435457 L 29.709764,39.655947 L 28.47733,39.655947 L 27.244897,39.655947 L 27.241432,38.141677 C 27.236144,35.833604 27.094746,32.475221 26.991966,32.216649 C 26.941572,32.089863 26.773229,31.922431 26.617875,31.844576 C 26.096007,31.583046 25.322787,31.79429 24.4059,32.448886 L 23.987753,32.747413 L 23.987753,36.20168 L 23.987753,39.655947 L 22.75532,39.655947 L 21.522887,39.655947 L 21.522887,34.793221 z"
     id="path3223" />
  <path
     style="fill:#898167;fill-opacity:1;fill-rule:evenodd;stroke:#384632;stroke-width:0.08666029;stroke-opacity:1"
     d="M 35.482841,39.902731 C 35.196212,39.862226 34.720845,39.718224 34.426469,39.58273 C 33.526838,39.168655 33.033072,38.581126 32.686714,37.512609 C 32.496568,36.926009 32.482773,36.74162 32.483301,34.793221 C 32.483777,33.062838 32.510529,32.609206 32.638799,32.157554 C 32.94454,31.080987 33.540192,30.339969 34.423107,29.937771 C 35.27455,29.549916 37.470439,29.545692 38.248605,29.930416 C 39.129478,30.365919 39.759709,31.215002 39.879203,32.127253 L 39.937875,32.575135 L 38.884241,32.575135 L 37.830617,32.575135 L 37.776654,32.313667 C 37.746979,32.169857 37.606419,31.939517 37.464311,31.801799 C 37.230483,31.575193 37.150507,31.551403 36.622595,31.551403 C 35.861717,31.551403 35.556056,31.706223 35.327246,32.207511 C 35.09664,32.712716 35.033372,34.074217 35.150127,36.018761 C 35.222683,37.227127 35.264023,37.493576 35.408181,37.682325 C 35.625169,37.966419 36.386117,38.173891 36.881063,38.083908 C 37.334615,38.001448 37.774805,37.573242 37.858382,37.133205 C 37.893392,36.948856 37.965841,36.769824 38.019373,36.735352 C 38.072913,36.700879 38.575622,36.672087 39.136511,36.671369 L 40.156297,36.670063 L 40.081814,37.203256 C 39.851974,38.848059 38.986005,39.675044 37.252042,39.905621 C 36.478013,40.008551 36.228692,40.008144 35.482841,39.902733 L 35.482841,39.902731 z"
     id="path3225" />
  <path
     sodipodi:type="arc"
     style="fill:#898167;fill-opacity:1;fill-rule:evenodd;stroke:#384632;stroke-opacity:1"
     id="path2448"
     sodipodi:cx="-28.744186"
     sodipodi:cy="25.28372"
     sodipodi:rx="9.3209305"
     sodipodi:ry="8.5953493"
     d="M -19.423256,25.28372 A 9.3209305,8.5953493 0 1 1 -38.065117,25.28372 A 9.3209305,8.5953493 0 1 1 -19.423256,25.28372 z"
     transform="matrix(0.2318879,0,0,0.2635438,48.232039,27.74833)" />
  <path
     style="fill:none;fill-rule:evenodd;stroke:#384632;stroke-width:0.23289953px;stroke-linecap:butt;stroke-linejoin:miter;stroke-opacity:1"
     d="M 39.320794,35.432761 C 40.507882,35.420829 42.476265,35.09871 44.033633,34.698576"
     id="path2452"
     sodipodi:nodetypes="cc" />
</svg>
